<mxfile host="app.diagrams.net" modified="2022-10-07T08:42:34.557Z" agent="5.0 (Windows)" etag="38pQioelTrDN49DLrWUM" version="20.4.0" type="github">
  <diagram id="oMn7Wc5Ci9igpRiUyUZa" name="第 1 页">
    <mxGraphModel dx="1371" dy="734" grid="1" gridSize="10" guides="1" tooltips="1" connect="1" arrows="1" fold="1" page="1" pageScale="1" pageWidth="827" pageHeight="1169" math="0" shadow="0">
      <root>
        <mxCell id="0" />
        <mxCell id="1" parent="0" />
        <mxCell id="I0BEPzhgezmqRIuU8-Me-3" value="" style="shape=table;startSize=0;container=1;collapsible=0;childLayout=tableLayout;" vertex="1" parent="1">
          <mxGeometry x="60" y="160" width="270" height="256" as="geometry" />
        </mxCell>
        <mxCell id="I0BEPzhgezmqRIuU8-Me-4" value="" style="shape=tableRow;horizontal=0;startSize=0;swimlaneHead=0;swimlaneBody=0;top=0;left=0;bottom=0;right=0;collapsible=0;dropTarget=0;fillColor=none;points=[[0,0.5],[1,0.5]];portConstraint=eastwest;" vertex="1" parent="I0BEPzhgezmqRIuU8-Me-3">
          <mxGeometry width="270" height="34" as="geometry" />
        </mxCell>
        <mxCell id="I0BEPzhgezmqRIuU8-Me-5" value="" style="shape=partialRectangle;html=1;whiteSpace=wrap;connectable=0;overflow=hidden;fillColor=none;top=0;left=0;bottom=0;right=0;pointerEvents=1;" vertex="1" parent="I0BEPzhgezmqRIuU8-Me-4">
          <mxGeometry width="34" height="34" as="geometry">
            <mxRectangle width="34" height="34" as="alternateBounds" />
          </mxGeometry>
        </mxCell>
        <mxCell id="I0BEPzhgezmqRIuU8-Me-6" value="" style="shape=partialRectangle;html=1;whiteSpace=wrap;connectable=0;overflow=hidden;fillColor=none;top=0;left=0;bottom=0;right=0;pointerEvents=1;" vertex="1" parent="I0BEPzhgezmqRIuU8-Me-4">
          <mxGeometry x="34" width="34" height="34" as="geometry">
            <mxRectangle width="34" height="34" as="alternateBounds" />
          </mxGeometry>
        </mxCell>
        <mxCell id="I0BEPzhgezmqRIuU8-Me-7" value="" style="shape=partialRectangle;html=1;whiteSpace=wrap;connectable=0;overflow=hidden;fillColor=none;top=0;left=0;bottom=0;right=0;pointerEvents=1;" vertex="1" parent="I0BEPzhgezmqRIuU8-Me-4">
          <mxGeometry x="68" width="33" height="34" as="geometry">
            <mxRectangle width="33" height="34" as="alternateBounds" />
          </mxGeometry>
        </mxCell>
        <mxCell id="I0BEPzhgezmqRIuU8-Me-8" value="" style="shape=partialRectangle;html=1;whiteSpace=wrap;connectable=0;overflow=hidden;fillColor=none;top=0;left=0;bottom=0;right=0;pointerEvents=1;" vertex="1" parent="I0BEPzhgezmqRIuU8-Me-4">
          <mxGeometry x="101" width="34" height="34" as="geometry">
            <mxRectangle width="34" height="34" as="alternateBounds" />
          </mxGeometry>
        </mxCell>
        <mxCell id="I0BEPzhgezmqRIuU8-Me-9" value="" style="shape=partialRectangle;html=1;whiteSpace=wrap;connectable=0;overflow=hidden;fillColor=none;top=0;left=0;bottom=0;right=0;pointerEvents=1;" vertex="1" parent="I0BEPzhgezmqRIuU8-Me-4">
          <mxGeometry x="135" width="34" height="34" as="geometry">
            <mxRectangle width="34" height="34" as="alternateBounds" />
          </mxGeometry>
        </mxCell>
        <mxCell id="I0BEPzhgezmqRIuU8-Me-10" value="" style="shape=partialRectangle;html=1;whiteSpace=wrap;connectable=0;overflow=hidden;fillColor=none;top=0;left=0;bottom=0;right=0;pointerEvents=1;" vertex="1" parent="I0BEPzhgezmqRIuU8-Me-4">
          <mxGeometry x="169" width="34" height="34" as="geometry">
            <mxRectangle width="34" height="34" as="alternateBounds" />
          </mxGeometry>
        </mxCell>
        <mxCell id="I0BEPzhgezmqRIuU8-Me-11" value="" style="shape=partialRectangle;html=1;whiteSpace=wrap;connectable=0;overflow=hidden;fillColor=none;top=0;left=0;bottom=0;right=0;pointerEvents=1;" vertex="1" parent="I0BEPzhgezmqRIuU8-Me-4">
          <mxGeometry x="203" width="33" height="34" as="geometry">
            <mxRectangle width="33" height="34" as="alternateBounds" />
          </mxGeometry>
        </mxCell>
        <mxCell id="I0BEPzhgezmqRIuU8-Me-12" value="" style="shape=partialRectangle;html=1;whiteSpace=wrap;connectable=0;overflow=hidden;fillColor=none;top=0;left=0;bottom=0;right=0;pointerEvents=1;" vertex="1" parent="I0BEPzhgezmqRIuU8-Me-4">
          <mxGeometry x="236" width="34" height="34" as="geometry">
            <mxRectangle width="34" height="34" as="alternateBounds" />
          </mxGeometry>
        </mxCell>
        <mxCell id="I0BEPzhgezmqRIuU8-Me-13" value="" style="shape=tableRow;horizontal=0;startSize=0;swimlaneHead=0;swimlaneBody=0;top=0;left=0;bottom=0;right=0;collapsible=0;dropTarget=0;fillColor=none;points=[[0,0.5],[1,0.5]];portConstraint=eastwest;" vertex="1" parent="I0BEPzhgezmqRIuU8-Me-3">
          <mxGeometry y="34" width="270" height="20" as="geometry" />
        </mxCell>
        <mxCell id="I0BEPzhgezmqRIuU8-Me-14" value="" style="shape=partialRectangle;html=1;whiteSpace=wrap;connectable=0;overflow=hidden;fillColor=none;top=0;left=0;bottom=0;right=0;pointerEvents=1;" vertex="1" parent="I0BEPzhgezmqRIuU8-Me-13">
          <mxGeometry width="34" height="20" as="geometry">
            <mxRectangle width="34" height="20" as="alternateBounds" />
          </mxGeometry>
        </mxCell>
        <mxCell id="I0BEPzhgezmqRIuU8-Me-15" value="" style="shape=partialRectangle;html=1;whiteSpace=wrap;connectable=0;overflow=hidden;fillColor=none;top=0;left=0;bottom=0;right=0;pointerEvents=1;" vertex="1" parent="I0BEPzhgezmqRIuU8-Me-13">
          <mxGeometry x="34" width="34" height="20" as="geometry">
            <mxRectangle width="34" height="20" as="alternateBounds" />
          </mxGeometry>
        </mxCell>
        <mxCell id="I0BEPzhgezmqRIuU8-Me-16" value="" style="shape=partialRectangle;html=1;whiteSpace=wrap;connectable=0;overflow=hidden;fillColor=none;top=0;left=0;bottom=0;right=0;pointerEvents=1;" vertex="1" parent="I0BEPzhgezmqRIuU8-Me-13">
          <mxGeometry x="68" width="33" height="20" as="geometry">
            <mxRectangle width="33" height="20" as="alternateBounds" />
          </mxGeometry>
        </mxCell>
        <mxCell id="I0BEPzhgezmqRIuU8-Me-17" value="" style="shape=partialRectangle;html=1;whiteSpace=wrap;connectable=0;overflow=hidden;fillColor=none;top=0;left=0;bottom=0;right=0;pointerEvents=1;" vertex="1" parent="I0BEPzhgezmqRIuU8-Me-13">
          <mxGeometry x="101" width="34" height="20" as="geometry">
            <mxRectangle width="34" height="20" as="alternateBounds" />
          </mxGeometry>
        </mxCell>
        <mxCell id="I0BEPzhgezmqRIuU8-Me-18" value="" style="shape=partialRectangle;html=1;whiteSpace=wrap;connectable=0;overflow=hidden;fillColor=none;top=0;left=0;bottom=0;right=0;pointerEvents=1;" vertex="1" parent="I0BEPzhgezmqRIuU8-Me-13">
          <mxGeometry x="135" width="34" height="20" as="geometry">
            <mxRectangle width="34" height="20" as="alternateBounds" />
          </mxGeometry>
        </mxCell>
        <mxCell id="I0BEPzhgezmqRIuU8-Me-19" value="" style="shape=partialRectangle;html=1;whiteSpace=wrap;connectable=0;overflow=hidden;fillColor=none;top=0;left=0;bottom=0;right=0;pointerEvents=1;" vertex="1" parent="I0BEPzhgezmqRIuU8-Me-13">
          <mxGeometry x="169" width="34" height="20" as="geometry">
            <mxRectangle width="34" height="20" as="alternateBounds" />
          </mxGeometry>
        </mxCell>
        <mxCell id="I0BEPzhgezmqRIuU8-Me-20" value="" style="shape=partialRectangle;html=1;whiteSpace=wrap;connectable=0;overflow=hidden;fillColor=none;top=0;left=0;bottom=0;right=0;pointerEvents=1;" vertex="1" parent="I0BEPzhgezmqRIuU8-Me-13">
          <mxGeometry x="203" width="33" height="20" as="geometry">
            <mxRectangle width="33" height="20" as="alternateBounds" />
          </mxGeometry>
        </mxCell>
        <mxCell id="I0BEPzhgezmqRIuU8-Me-21" value="" style="shape=partialRectangle;html=1;whiteSpace=wrap;connectable=0;overflow=hidden;fillColor=none;top=0;left=0;bottom=0;right=0;pointerEvents=1;" vertex="1" parent="I0BEPzhgezmqRIuU8-Me-13">
          <mxGeometry x="236" width="34" height="20" as="geometry">
            <mxRectangle width="34" height="20" as="alternateBounds" />
          </mxGeometry>
        </mxCell>
        <mxCell id="I0BEPzhgezmqRIuU8-Me-22" value="" style="shape=tableRow;horizontal=0;startSize=0;swimlaneHead=0;swimlaneBody=0;top=0;left=0;bottom=0;right=0;collapsible=0;dropTarget=0;fillColor=none;points=[[0,0.5],[1,0.5]];portConstraint=eastwest;" vertex="1" parent="I0BEPzhgezmqRIuU8-Me-3">
          <mxGeometry y="54" width="270" height="33" as="geometry" />
        </mxCell>
        <mxCell id="I0BEPzhgezmqRIuU8-Me-23" value="" style="shape=partialRectangle;html=1;whiteSpace=wrap;connectable=0;overflow=hidden;fillColor=none;top=0;left=0;bottom=0;right=0;pointerEvents=1;" vertex="1" parent="I0BEPzhgezmqRIuU8-Me-22">
          <mxGeometry width="34" height="33" as="geometry">
            <mxRectangle width="34" height="33" as="alternateBounds" />
          </mxGeometry>
        </mxCell>
        <mxCell id="I0BEPzhgezmqRIuU8-Me-24" value="" style="shape=partialRectangle;html=1;whiteSpace=wrap;connectable=0;overflow=hidden;fillColor=none;top=0;left=0;bottom=0;right=0;pointerEvents=1;" vertex="1" parent="I0BEPzhgezmqRIuU8-Me-22">
          <mxGeometry x="34" width="34" height="33" as="geometry">
            <mxRectangle width="34" height="33" as="alternateBounds" />
          </mxGeometry>
        </mxCell>
        <mxCell id="I0BEPzhgezmqRIuU8-Me-25" value="" style="shape=partialRectangle;html=1;whiteSpace=wrap;connectable=0;overflow=hidden;fillColor=none;top=0;left=0;bottom=0;right=0;pointerEvents=1;" vertex="1" parent="I0BEPzhgezmqRIuU8-Me-22">
          <mxGeometry x="68" width="33" height="33" as="geometry">
            <mxRectangle width="33" height="33" as="alternateBounds" />
          </mxGeometry>
        </mxCell>
        <mxCell id="I0BEPzhgezmqRIuU8-Me-26" value="" style="shape=partialRectangle;html=1;whiteSpace=wrap;connectable=0;overflow=hidden;fillColor=none;top=0;left=0;bottom=0;right=0;pointerEvents=1;" vertex="1" parent="I0BEPzhgezmqRIuU8-Me-22">
          <mxGeometry x="101" width="34" height="33" as="geometry">
            <mxRectangle width="34" height="33" as="alternateBounds" />
          </mxGeometry>
        </mxCell>
        <mxCell id="I0BEPzhgezmqRIuU8-Me-27" value="" style="shape=partialRectangle;html=1;whiteSpace=wrap;connectable=0;overflow=hidden;fillColor=none;top=0;left=0;bottom=0;right=0;pointerEvents=1;" vertex="1" parent="I0BEPzhgezmqRIuU8-Me-22">
          <mxGeometry x="135" width="34" height="33" as="geometry">
            <mxRectangle width="34" height="33" as="alternateBounds" />
          </mxGeometry>
        </mxCell>
        <mxCell id="I0BEPzhgezmqRIuU8-Me-28" value="" style="shape=partialRectangle;html=1;whiteSpace=wrap;connectable=0;overflow=hidden;fillColor=none;top=0;left=0;bottom=0;right=0;pointerEvents=1;" vertex="1" parent="I0BEPzhgezmqRIuU8-Me-22">
          <mxGeometry x="169" width="34" height="33" as="geometry">
            <mxRectangle width="34" height="33" as="alternateBounds" />
          </mxGeometry>
        </mxCell>
        <mxCell id="I0BEPzhgezmqRIuU8-Me-29" value="" style="shape=partialRectangle;html=1;whiteSpace=wrap;connectable=0;overflow=hidden;fillColor=none;top=0;left=0;bottom=0;right=0;pointerEvents=1;" vertex="1" parent="I0BEPzhgezmqRIuU8-Me-22">
          <mxGeometry x="203" width="33" height="33" as="geometry">
            <mxRectangle width="33" height="33" as="alternateBounds" />
          </mxGeometry>
        </mxCell>
        <mxCell id="I0BEPzhgezmqRIuU8-Me-30" value="" style="shape=partialRectangle;html=1;whiteSpace=wrap;connectable=0;overflow=hidden;fillColor=none;top=0;left=0;bottom=0;right=0;pointerEvents=1;" vertex="1" parent="I0BEPzhgezmqRIuU8-Me-22">
          <mxGeometry x="236" width="34" height="33" as="geometry">
            <mxRectangle width="34" height="33" as="alternateBounds" />
          </mxGeometry>
        </mxCell>
        <mxCell id="I0BEPzhgezmqRIuU8-Me-31" value="" style="shape=tableRow;horizontal=0;startSize=0;swimlaneHead=0;swimlaneBody=0;top=0;left=0;bottom=0;right=0;collapsible=0;dropTarget=0;fillColor=none;points=[[0,0.5],[1,0.5]];portConstraint=eastwest;" vertex="1" parent="I0BEPzhgezmqRIuU8-Me-3">
          <mxGeometry y="87" width="270" height="34" as="geometry" />
        </mxCell>
        <mxCell id="I0BEPzhgezmqRIuU8-Me-32" value="" style="shape=partialRectangle;html=1;whiteSpace=wrap;connectable=0;overflow=hidden;fillColor=none;top=0;left=0;bottom=0;right=0;pointerEvents=1;" vertex="1" parent="I0BEPzhgezmqRIuU8-Me-31">
          <mxGeometry width="34" height="34" as="geometry">
            <mxRectangle width="34" height="34" as="alternateBounds" />
          </mxGeometry>
        </mxCell>
        <mxCell id="I0BEPzhgezmqRIuU8-Me-33" value="" style="shape=partialRectangle;html=1;whiteSpace=wrap;connectable=0;overflow=hidden;fillColor=none;top=0;left=0;bottom=0;right=0;pointerEvents=1;" vertex="1" parent="I0BEPzhgezmqRIuU8-Me-31">
          <mxGeometry x="34" width="34" height="34" as="geometry">
            <mxRectangle width="34" height="34" as="alternateBounds" />
          </mxGeometry>
        </mxCell>
        <mxCell id="I0BEPzhgezmqRIuU8-Me-34" value="" style="shape=partialRectangle;html=1;whiteSpace=wrap;connectable=0;overflow=hidden;fillColor=none;top=0;left=0;bottom=0;right=0;pointerEvents=1;" vertex="1" parent="I0BEPzhgezmqRIuU8-Me-31">
          <mxGeometry x="68" width="33" height="34" as="geometry">
            <mxRectangle width="33" height="34" as="alternateBounds" />
          </mxGeometry>
        </mxCell>
        <mxCell id="I0BEPzhgezmqRIuU8-Me-35" value="" style="shape=partialRectangle;html=1;whiteSpace=wrap;connectable=0;overflow=hidden;fillColor=none;top=0;left=0;bottom=0;right=0;pointerEvents=1;" vertex="1" parent="I0BEPzhgezmqRIuU8-Me-31">
          <mxGeometry x="101" width="34" height="34" as="geometry">
            <mxRectangle width="34" height="34" as="alternateBounds" />
          </mxGeometry>
        </mxCell>
        <mxCell id="I0BEPzhgezmqRIuU8-Me-36" value="" style="shape=partialRectangle;html=1;whiteSpace=wrap;connectable=0;overflow=hidden;fillColor=none;top=0;left=0;bottom=0;right=0;pointerEvents=1;" vertex="1" parent="I0BEPzhgezmqRIuU8-Me-31">
          <mxGeometry x="135" width="34" height="34" as="geometry">
            <mxRectangle width="34" height="34" as="alternateBounds" />
          </mxGeometry>
        </mxCell>
        <mxCell id="I0BEPzhgezmqRIuU8-Me-37" value="" style="shape=partialRectangle;html=1;whiteSpace=wrap;connectable=0;overflow=hidden;fillColor=none;top=0;left=0;bottom=0;right=0;pointerEvents=1;" vertex="1" parent="I0BEPzhgezmqRIuU8-Me-31">
          <mxGeometry x="169" width="34" height="34" as="geometry">
            <mxRectangle width="34" height="34" as="alternateBounds" />
          </mxGeometry>
        </mxCell>
        <mxCell id="I0BEPzhgezmqRIuU8-Me-38" value="" style="shape=partialRectangle;html=1;whiteSpace=wrap;connectable=0;overflow=hidden;fillColor=none;top=0;left=0;bottom=0;right=0;pointerEvents=1;" vertex="1" parent="I0BEPzhgezmqRIuU8-Me-31">
          <mxGeometry x="203" width="33" height="34" as="geometry">
            <mxRectangle width="33" height="34" as="alternateBounds" />
          </mxGeometry>
        </mxCell>
        <mxCell id="I0BEPzhgezmqRIuU8-Me-39" value="" style="shape=partialRectangle;html=1;whiteSpace=wrap;connectable=0;overflow=hidden;fillColor=none;top=0;left=0;bottom=0;right=0;pointerEvents=1;" vertex="1" parent="I0BEPzhgezmqRIuU8-Me-31">
          <mxGeometry x="236" width="34" height="34" as="geometry">
            <mxRectangle width="34" height="34" as="alternateBounds" />
          </mxGeometry>
        </mxCell>
        <mxCell id="I0BEPzhgezmqRIuU8-Me-40" value="" style="shape=tableRow;horizontal=0;startSize=0;swimlaneHead=0;swimlaneBody=0;top=0;left=0;bottom=0;right=0;collapsible=0;dropTarget=0;fillColor=none;points=[[0,0.5],[1,0.5]];portConstraint=eastwest;" vertex="1" parent="I0BEPzhgezmqRIuU8-Me-3">
          <mxGeometry y="121" width="270" height="34" as="geometry" />
        </mxCell>
        <mxCell id="I0BEPzhgezmqRIuU8-Me-41" value="" style="shape=partialRectangle;html=1;whiteSpace=wrap;connectable=0;overflow=hidden;fillColor=none;top=0;left=0;bottom=0;right=0;pointerEvents=1;" vertex="1" parent="I0BEPzhgezmqRIuU8-Me-40">
          <mxGeometry width="34" height="34" as="geometry">
            <mxRectangle width="34" height="34" as="alternateBounds" />
          </mxGeometry>
        </mxCell>
        <mxCell id="I0BEPzhgezmqRIuU8-Me-42" value="" style="shape=partialRectangle;html=1;whiteSpace=wrap;connectable=0;overflow=hidden;fillColor=none;top=0;left=0;bottom=0;right=0;pointerEvents=1;" vertex="1" parent="I0BEPzhgezmqRIuU8-Me-40">
          <mxGeometry x="34" width="34" height="34" as="geometry">
            <mxRectangle width="34" height="34" as="alternateBounds" />
          </mxGeometry>
        </mxCell>
        <mxCell id="I0BEPzhgezmqRIuU8-Me-43" value="" style="shape=partialRectangle;html=1;whiteSpace=wrap;connectable=0;overflow=hidden;fillColor=none;top=0;left=0;bottom=0;right=0;pointerEvents=1;" vertex="1" parent="I0BEPzhgezmqRIuU8-Me-40">
          <mxGeometry x="68" width="33" height="34" as="geometry">
            <mxRectangle width="33" height="34" as="alternateBounds" />
          </mxGeometry>
        </mxCell>
        <mxCell id="I0BEPzhgezmqRIuU8-Me-44" value="" style="shape=partialRectangle;html=1;whiteSpace=wrap;connectable=0;overflow=hidden;fillColor=none;top=0;left=0;bottom=0;right=0;pointerEvents=1;" vertex="1" parent="I0BEPzhgezmqRIuU8-Me-40">
          <mxGeometry x="101" width="34" height="34" as="geometry">
            <mxRectangle width="34" height="34" as="alternateBounds" />
          </mxGeometry>
        </mxCell>
        <mxCell id="I0BEPzhgezmqRIuU8-Me-45" value="" style="shape=partialRectangle;html=1;whiteSpace=wrap;connectable=0;overflow=hidden;fillColor=none;top=0;left=0;bottom=0;right=0;pointerEvents=1;" vertex="1" parent="I0BEPzhgezmqRIuU8-Me-40">
          <mxGeometry x="135" width="34" height="34" as="geometry">
            <mxRectangle width="34" height="34" as="alternateBounds" />
          </mxGeometry>
        </mxCell>
        <mxCell id="I0BEPzhgezmqRIuU8-Me-46" value="" style="shape=partialRectangle;html=1;whiteSpace=wrap;connectable=0;overflow=hidden;fillColor=none;top=0;left=0;bottom=0;right=0;pointerEvents=1;" vertex="1" parent="I0BEPzhgezmqRIuU8-Me-40">
          <mxGeometry x="169" width="34" height="34" as="geometry">
            <mxRectangle width="34" height="34" as="alternateBounds" />
          </mxGeometry>
        </mxCell>
        <mxCell id="I0BEPzhgezmqRIuU8-Me-47" value="" style="shape=partialRectangle;html=1;whiteSpace=wrap;connectable=0;overflow=hidden;fillColor=none;top=0;left=0;bottom=0;right=0;pointerEvents=1;" vertex="1" parent="I0BEPzhgezmqRIuU8-Me-40">
          <mxGeometry x="203" width="33" height="34" as="geometry">
            <mxRectangle width="33" height="34" as="alternateBounds" />
          </mxGeometry>
        </mxCell>
        <mxCell id="I0BEPzhgezmqRIuU8-Me-48" value="" style="shape=partialRectangle;html=1;whiteSpace=wrap;connectable=0;overflow=hidden;fillColor=none;top=0;left=0;bottom=0;right=0;pointerEvents=1;" vertex="1" parent="I0BEPzhgezmqRIuU8-Me-40">
          <mxGeometry x="236" width="34" height="34" as="geometry">
            <mxRectangle width="34" height="34" as="alternateBounds" />
          </mxGeometry>
        </mxCell>
        <mxCell id="I0BEPzhgezmqRIuU8-Me-49" value="" style="shape=tableRow;horizontal=0;startSize=0;swimlaneHead=0;swimlaneBody=0;top=0;left=0;bottom=0;right=0;collapsible=0;dropTarget=0;fillColor=none;points=[[0,0.5],[1,0.5]];portConstraint=eastwest;" vertex="1" parent="I0BEPzhgezmqRIuU8-Me-3">
          <mxGeometry y="155" width="270" height="34" as="geometry" />
        </mxCell>
        <mxCell id="I0BEPzhgezmqRIuU8-Me-50" value="" style="shape=partialRectangle;html=1;whiteSpace=wrap;connectable=0;overflow=hidden;fillColor=none;top=0;left=0;bottom=0;right=0;pointerEvents=1;" vertex="1" parent="I0BEPzhgezmqRIuU8-Me-49">
          <mxGeometry width="34" height="34" as="geometry">
            <mxRectangle width="34" height="34" as="alternateBounds" />
          </mxGeometry>
        </mxCell>
        <mxCell id="I0BEPzhgezmqRIuU8-Me-51" value="" style="shape=partialRectangle;html=1;whiteSpace=wrap;connectable=0;overflow=hidden;fillColor=none;top=0;left=0;bottom=0;right=0;pointerEvents=1;" vertex="1" parent="I0BEPzhgezmqRIuU8-Me-49">
          <mxGeometry x="34" width="34" height="34" as="geometry">
            <mxRectangle width="34" height="34" as="alternateBounds" />
          </mxGeometry>
        </mxCell>
        <mxCell id="I0BEPzhgezmqRIuU8-Me-52" value="" style="shape=partialRectangle;html=1;whiteSpace=wrap;connectable=0;overflow=hidden;fillColor=none;top=0;left=0;bottom=0;right=0;pointerEvents=1;" vertex="1" parent="I0BEPzhgezmqRIuU8-Me-49">
          <mxGeometry x="68" width="33" height="34" as="geometry">
            <mxRectangle width="33" height="34" as="alternateBounds" />
          </mxGeometry>
        </mxCell>
        <mxCell id="I0BEPzhgezmqRIuU8-Me-53" value="" style="shape=partialRectangle;html=1;whiteSpace=wrap;connectable=0;overflow=hidden;fillColor=none;top=0;left=0;bottom=0;right=0;pointerEvents=1;" vertex="1" parent="I0BEPzhgezmqRIuU8-Me-49">
          <mxGeometry x="101" width="34" height="34" as="geometry">
            <mxRectangle width="34" height="34" as="alternateBounds" />
          </mxGeometry>
        </mxCell>
        <mxCell id="I0BEPzhgezmqRIuU8-Me-54" value="" style="shape=partialRectangle;html=1;whiteSpace=wrap;connectable=0;overflow=hidden;fillColor=none;top=0;left=0;bottom=0;right=0;pointerEvents=1;" vertex="1" parent="I0BEPzhgezmqRIuU8-Me-49">
          <mxGeometry x="135" width="34" height="34" as="geometry">
            <mxRectangle width="34" height="34" as="alternateBounds" />
          </mxGeometry>
        </mxCell>
        <mxCell id="I0BEPzhgezmqRIuU8-Me-55" value="" style="shape=partialRectangle;html=1;whiteSpace=wrap;connectable=0;overflow=hidden;fillColor=none;top=0;left=0;bottom=0;right=0;pointerEvents=1;" vertex="1" parent="I0BEPzhgezmqRIuU8-Me-49">
          <mxGeometry x="169" width="34" height="34" as="geometry">
            <mxRectangle width="34" height="34" as="alternateBounds" />
          </mxGeometry>
        </mxCell>
        <mxCell id="I0BEPzhgezmqRIuU8-Me-56" value="" style="shape=partialRectangle;html=1;whiteSpace=wrap;connectable=0;overflow=hidden;fillColor=none;top=0;left=0;bottom=0;right=0;pointerEvents=1;" vertex="1" parent="I0BEPzhgezmqRIuU8-Me-49">
          <mxGeometry x="203" width="33" height="34" as="geometry">
            <mxRectangle width="33" height="34" as="alternateBounds" />
          </mxGeometry>
        </mxCell>
        <mxCell id="I0BEPzhgezmqRIuU8-Me-57" value="" style="shape=partialRectangle;html=1;whiteSpace=wrap;connectable=0;overflow=hidden;fillColor=none;top=0;left=0;bottom=0;right=0;pointerEvents=1;" vertex="1" parent="I0BEPzhgezmqRIuU8-Me-49">
          <mxGeometry x="236" width="34" height="34" as="geometry">
            <mxRectangle width="34" height="34" as="alternateBounds" />
          </mxGeometry>
        </mxCell>
        <mxCell id="I0BEPzhgezmqRIuU8-Me-58" value="" style="shape=tableRow;horizontal=0;startSize=0;swimlaneHead=0;swimlaneBody=0;top=0;left=0;bottom=0;right=0;collapsible=0;dropTarget=0;fillColor=none;points=[[0,0.5],[1,0.5]];portConstraint=eastwest;" vertex="1" parent="I0BEPzhgezmqRIuU8-Me-3">
          <mxGeometry y="189" width="270" height="33" as="geometry" />
        </mxCell>
        <mxCell id="I0BEPzhgezmqRIuU8-Me-59" value="" style="shape=partialRectangle;html=1;whiteSpace=wrap;connectable=0;overflow=hidden;fillColor=none;top=0;left=0;bottom=0;right=0;pointerEvents=1;" vertex="1" parent="I0BEPzhgezmqRIuU8-Me-58">
          <mxGeometry width="34" height="33" as="geometry">
            <mxRectangle width="34" height="33" as="alternateBounds" />
          </mxGeometry>
        </mxCell>
        <mxCell id="I0BEPzhgezmqRIuU8-Me-60" value="" style="shape=partialRectangle;html=1;whiteSpace=wrap;connectable=0;overflow=hidden;fillColor=none;top=0;left=0;bottom=0;right=0;pointerEvents=1;" vertex="1" parent="I0BEPzhgezmqRIuU8-Me-58">
          <mxGeometry x="34" width="34" height="33" as="geometry">
            <mxRectangle width="34" height="33" as="alternateBounds" />
          </mxGeometry>
        </mxCell>
        <mxCell id="I0BEPzhgezmqRIuU8-Me-61" value="" style="shape=partialRectangle;html=1;whiteSpace=wrap;connectable=0;overflow=hidden;fillColor=none;top=0;left=0;bottom=0;right=0;pointerEvents=1;" vertex="1" parent="I0BEPzhgezmqRIuU8-Me-58">
          <mxGeometry x="68" width="33" height="33" as="geometry">
            <mxRectangle width="33" height="33" as="alternateBounds" />
          </mxGeometry>
        </mxCell>
        <mxCell id="I0BEPzhgezmqRIuU8-Me-62" value="" style="shape=partialRectangle;html=1;whiteSpace=wrap;connectable=0;overflow=hidden;fillColor=none;top=0;left=0;bottom=0;right=0;pointerEvents=1;" vertex="1" parent="I0BEPzhgezmqRIuU8-Me-58">
          <mxGeometry x="101" width="34" height="33" as="geometry">
            <mxRectangle width="34" height="33" as="alternateBounds" />
          </mxGeometry>
        </mxCell>
        <mxCell id="I0BEPzhgezmqRIuU8-Me-63" value="" style="shape=partialRectangle;html=1;whiteSpace=wrap;connectable=0;overflow=hidden;fillColor=none;top=0;left=0;bottom=0;right=0;pointerEvents=1;" vertex="1" parent="I0BEPzhgezmqRIuU8-Me-58">
          <mxGeometry x="135" width="34" height="33" as="geometry">
            <mxRectangle width="34" height="33" as="alternateBounds" />
          </mxGeometry>
        </mxCell>
        <mxCell id="I0BEPzhgezmqRIuU8-Me-64" value="" style="shape=partialRectangle;html=1;whiteSpace=wrap;connectable=0;overflow=hidden;fillColor=none;top=0;left=0;bottom=0;right=0;pointerEvents=1;" vertex="1" parent="I0BEPzhgezmqRIuU8-Me-58">
          <mxGeometry x="169" width="34" height="33" as="geometry">
            <mxRectangle width="34" height="33" as="alternateBounds" />
          </mxGeometry>
        </mxCell>
        <mxCell id="I0BEPzhgezmqRIuU8-Me-65" value="" style="shape=partialRectangle;html=1;whiteSpace=wrap;connectable=0;overflow=hidden;fillColor=none;top=0;left=0;bottom=0;right=0;pointerEvents=1;" vertex="1" parent="I0BEPzhgezmqRIuU8-Me-58">
          <mxGeometry x="203" width="33" height="33" as="geometry">
            <mxRectangle width="33" height="33" as="alternateBounds" />
          </mxGeometry>
        </mxCell>
        <mxCell id="I0BEPzhgezmqRIuU8-Me-66" value="" style="shape=partialRectangle;html=1;whiteSpace=wrap;connectable=0;overflow=hidden;fillColor=none;top=0;left=0;bottom=0;right=0;pointerEvents=1;" vertex="1" parent="I0BEPzhgezmqRIuU8-Me-58">
          <mxGeometry x="236" width="34" height="33" as="geometry">
            <mxRectangle width="34" height="33" as="alternateBounds" />
          </mxGeometry>
        </mxCell>
        <mxCell id="I0BEPzhgezmqRIuU8-Me-67" value="" style="shape=tableRow;horizontal=0;startSize=0;swimlaneHead=0;swimlaneBody=0;top=0;left=0;bottom=0;right=0;collapsible=0;dropTarget=0;fillColor=none;points=[[0,0.5],[1,0.5]];portConstraint=eastwest;" vertex="1" parent="I0BEPzhgezmqRIuU8-Me-3">
          <mxGeometry y="222" width="270" height="34" as="geometry" />
        </mxCell>
        <mxCell id="I0BEPzhgezmqRIuU8-Me-68" value="" style="shape=partialRectangle;html=1;whiteSpace=wrap;connectable=0;overflow=hidden;fillColor=none;top=0;left=0;bottom=0;right=0;pointerEvents=1;" vertex="1" parent="I0BEPzhgezmqRIuU8-Me-67">
          <mxGeometry width="34" height="34" as="geometry">
            <mxRectangle width="34" height="34" as="alternateBounds" />
          </mxGeometry>
        </mxCell>
        <mxCell id="I0BEPzhgezmqRIuU8-Me-69" value="" style="shape=partialRectangle;html=1;whiteSpace=wrap;connectable=0;overflow=hidden;fillColor=none;top=0;left=0;bottom=0;right=0;pointerEvents=1;" vertex="1" parent="I0BEPzhgezmqRIuU8-Me-67">
          <mxGeometry x="34" width="34" height="34" as="geometry">
            <mxRectangle width="34" height="34" as="alternateBounds" />
          </mxGeometry>
        </mxCell>
        <mxCell id="I0BEPzhgezmqRIuU8-Me-70" value="" style="shape=partialRectangle;html=1;whiteSpace=wrap;connectable=0;overflow=hidden;fillColor=none;top=0;left=0;bottom=0;right=0;pointerEvents=1;" vertex="1" parent="I0BEPzhgezmqRIuU8-Me-67">
          <mxGeometry x="68" width="33" height="34" as="geometry">
            <mxRectangle width="33" height="34" as="alternateBounds" />
          </mxGeometry>
        </mxCell>
        <mxCell id="I0BEPzhgezmqRIuU8-Me-71" value="" style="shape=partialRectangle;html=1;whiteSpace=wrap;connectable=0;overflow=hidden;fillColor=none;top=0;left=0;bottom=0;right=0;pointerEvents=1;" vertex="1" parent="I0BEPzhgezmqRIuU8-Me-67">
          <mxGeometry x="101" width="34" height="34" as="geometry">
            <mxRectangle width="34" height="34" as="alternateBounds" />
          </mxGeometry>
        </mxCell>
        <mxCell id="I0BEPzhgezmqRIuU8-Me-72" value="" style="shape=partialRectangle;html=1;whiteSpace=wrap;connectable=0;overflow=hidden;fillColor=none;top=0;left=0;bottom=0;right=0;pointerEvents=1;" vertex="1" parent="I0BEPzhgezmqRIuU8-Me-67">
          <mxGeometry x="135" width="34" height="34" as="geometry">
            <mxRectangle width="34" height="34" as="alternateBounds" />
          </mxGeometry>
        </mxCell>
        <mxCell id="I0BEPzhgezmqRIuU8-Me-73" value="" style="shape=partialRectangle;html=1;whiteSpace=wrap;connectable=0;overflow=hidden;fillColor=none;top=0;left=0;bottom=0;right=0;pointerEvents=1;" vertex="1" parent="I0BEPzhgezmqRIuU8-Me-67">
          <mxGeometry x="169" width="34" height="34" as="geometry">
            <mxRectangle width="34" height="34" as="alternateBounds" />
          </mxGeometry>
        </mxCell>
        <mxCell id="I0BEPzhgezmqRIuU8-Me-74" value="" style="shape=partialRectangle;html=1;whiteSpace=wrap;connectable=0;overflow=hidden;fillColor=none;top=0;left=0;bottom=0;right=0;pointerEvents=1;" vertex="1" parent="I0BEPzhgezmqRIuU8-Me-67">
          <mxGeometry x="203" width="33" height="34" as="geometry">
            <mxRectangle width="33" height="34" as="alternateBounds" />
          </mxGeometry>
        </mxCell>
        <mxCell id="I0BEPzhgezmqRIuU8-Me-75" value="" style="shape=partialRectangle;html=1;whiteSpace=wrap;connectable=0;overflow=hidden;fillColor=none;top=0;left=0;bottom=0;right=0;pointerEvents=1;" vertex="1" parent="I0BEPzhgezmqRIuU8-Me-67">
          <mxGeometry x="236" width="34" height="34" as="geometry">
            <mxRectangle width="34" height="34" as="alternateBounds" />
          </mxGeometry>
        </mxCell>
        <mxCell id="I0BEPzhgezmqRIuU8-Me-76" value="" style="shape=table;startSize=0;container=1;collapsible=0;childLayout=tableLayout;" vertex="1" parent="1">
          <mxGeometry x="410" y="250" width="270" height="256" as="geometry" />
        </mxCell>
        <mxCell id="I0BEPzhgezmqRIuU8-Me-77" value="" style="shape=tableRow;horizontal=0;startSize=0;swimlaneHead=0;swimlaneBody=0;top=0;left=0;bottom=0;right=0;collapsible=0;dropTarget=0;fillColor=none;points=[[0,0.5],[1,0.5]];portConstraint=eastwest;" vertex="1" parent="I0BEPzhgezmqRIuU8-Me-76">
          <mxGeometry width="270" height="34" as="geometry" />
        </mxCell>
        <mxCell id="I0BEPzhgezmqRIuU8-Me-78" value="" style="shape=partialRectangle;html=1;whiteSpace=wrap;connectable=0;overflow=hidden;fillColor=none;top=0;left=0;bottom=0;right=0;pointerEvents=1;" vertex="1" parent="I0BEPzhgezmqRIuU8-Me-77">
          <mxGeometry width="34" height="34" as="geometry">
            <mxRectangle width="34" height="34" as="alternateBounds" />
          </mxGeometry>
        </mxCell>
        <mxCell id="I0BEPzhgezmqRIuU8-Me-79" value="" style="shape=partialRectangle;html=1;whiteSpace=wrap;connectable=0;overflow=hidden;fillColor=none;top=0;left=0;bottom=0;right=0;pointerEvents=1;" vertex="1" parent="I0BEPzhgezmqRIuU8-Me-77">
          <mxGeometry x="34" width="34" height="34" as="geometry">
            <mxRectangle width="34" height="34" as="alternateBounds" />
          </mxGeometry>
        </mxCell>
        <mxCell id="I0BEPzhgezmqRIuU8-Me-80" value="" style="shape=partialRectangle;html=1;whiteSpace=wrap;connectable=0;overflow=hidden;fillColor=none;top=0;left=0;bottom=0;right=0;pointerEvents=1;" vertex="1" parent="I0BEPzhgezmqRIuU8-Me-77">
          <mxGeometry x="68" width="33" height="34" as="geometry">
            <mxRectangle width="33" height="34" as="alternateBounds" />
          </mxGeometry>
        </mxCell>
        <mxCell id="I0BEPzhgezmqRIuU8-Me-81" value="" style="shape=partialRectangle;html=1;whiteSpace=wrap;connectable=0;overflow=hidden;fillColor=none;top=0;left=0;bottom=0;right=0;pointerEvents=1;" vertex="1" parent="I0BEPzhgezmqRIuU8-Me-77">
          <mxGeometry x="101" width="34" height="34" as="geometry">
            <mxRectangle width="34" height="34" as="alternateBounds" />
          </mxGeometry>
        </mxCell>
        <mxCell id="I0BEPzhgezmqRIuU8-Me-82" value="" style="shape=partialRectangle;html=1;whiteSpace=wrap;connectable=0;overflow=hidden;fillColor=none;top=0;left=0;bottom=0;right=0;pointerEvents=1;" vertex="1" parent="I0BEPzhgezmqRIuU8-Me-77">
          <mxGeometry x="135" width="34" height="34" as="geometry">
            <mxRectangle width="34" height="34" as="alternateBounds" />
          </mxGeometry>
        </mxCell>
        <mxCell id="I0BEPzhgezmqRIuU8-Me-83" value="" style="shape=partialRectangle;html=1;whiteSpace=wrap;connectable=0;overflow=hidden;fillColor=none;top=0;left=0;bottom=0;right=0;pointerEvents=1;" vertex="1" parent="I0BEPzhgezmqRIuU8-Me-77">
          <mxGeometry x="169" width="34" height="34" as="geometry">
            <mxRectangle width="34" height="34" as="alternateBounds" />
          </mxGeometry>
        </mxCell>
        <mxCell id="I0BEPzhgezmqRIuU8-Me-84" value="" style="shape=partialRectangle;html=1;whiteSpace=wrap;connectable=0;overflow=hidden;fillColor=none;top=0;left=0;bottom=0;right=0;pointerEvents=1;" vertex="1" parent="I0BEPzhgezmqRIuU8-Me-77">
          <mxGeometry x="203" width="33" height="34" as="geometry">
            <mxRectangle width="33" height="34" as="alternateBounds" />
          </mxGeometry>
        </mxCell>
        <mxCell id="I0BEPzhgezmqRIuU8-Me-85" value="" style="shape=partialRectangle;html=1;whiteSpace=wrap;connectable=0;overflow=hidden;fillColor=none;top=0;left=0;bottom=0;right=0;pointerEvents=1;" vertex="1" parent="I0BEPzhgezmqRIuU8-Me-77">
          <mxGeometry x="236" width="34" height="34" as="geometry">
            <mxRectangle width="34" height="34" as="alternateBounds" />
          </mxGeometry>
        </mxCell>
        <mxCell id="I0BEPzhgezmqRIuU8-Me-86" value="" style="shape=tableRow;horizontal=0;startSize=0;swimlaneHead=0;swimlaneBody=0;top=0;left=0;bottom=0;right=0;collapsible=0;dropTarget=0;fillColor=none;points=[[0,0.5],[1,0.5]];portConstraint=eastwest;" vertex="1" parent="I0BEPzhgezmqRIuU8-Me-76">
          <mxGeometry y="34" width="270" height="20" as="geometry" />
        </mxCell>
        <mxCell id="I0BEPzhgezmqRIuU8-Me-87" value="" style="shape=partialRectangle;html=1;whiteSpace=wrap;connectable=0;overflow=hidden;fillColor=none;top=0;left=0;bottom=0;right=0;pointerEvents=1;" vertex="1" parent="I0BEPzhgezmqRIuU8-Me-86">
          <mxGeometry width="34" height="20" as="geometry">
            <mxRectangle width="34" height="20" as="alternateBounds" />
          </mxGeometry>
        </mxCell>
        <mxCell id="I0BEPzhgezmqRIuU8-Me-88" value="" style="shape=partialRectangle;html=1;whiteSpace=wrap;connectable=0;overflow=hidden;fillColor=none;top=0;left=0;bottom=0;right=0;pointerEvents=1;" vertex="1" parent="I0BEPzhgezmqRIuU8-Me-86">
          <mxGeometry x="34" width="34" height="20" as="geometry">
            <mxRectangle width="34" height="20" as="alternateBounds" />
          </mxGeometry>
        </mxCell>
        <mxCell id="I0BEPzhgezmqRIuU8-Me-89" value="" style="shape=partialRectangle;html=1;whiteSpace=wrap;connectable=0;overflow=hidden;fillColor=none;top=0;left=0;bottom=0;right=0;pointerEvents=1;" vertex="1" parent="I0BEPzhgezmqRIuU8-Me-86">
          <mxGeometry x="68" width="33" height="20" as="geometry">
            <mxRectangle width="33" height="20" as="alternateBounds" />
          </mxGeometry>
        </mxCell>
        <mxCell id="I0BEPzhgezmqRIuU8-Me-90" value="" style="shape=partialRectangle;html=1;whiteSpace=wrap;connectable=0;overflow=hidden;fillColor=none;top=0;left=0;bottom=0;right=0;pointerEvents=1;" vertex="1" parent="I0BEPzhgezmqRIuU8-Me-86">
          <mxGeometry x="101" width="34" height="20" as="geometry">
            <mxRectangle width="34" height="20" as="alternateBounds" />
          </mxGeometry>
        </mxCell>
        <mxCell id="I0BEPzhgezmqRIuU8-Me-91" value="" style="shape=partialRectangle;html=1;whiteSpace=wrap;connectable=0;overflow=hidden;fillColor=none;top=0;left=0;bottom=0;right=0;pointerEvents=1;" vertex="1" parent="I0BEPzhgezmqRIuU8-Me-86">
          <mxGeometry x="135" width="34" height="20" as="geometry">
            <mxRectangle width="34" height="20" as="alternateBounds" />
          </mxGeometry>
        </mxCell>
        <mxCell id="I0BEPzhgezmqRIuU8-Me-92" value="" style="shape=partialRectangle;html=1;whiteSpace=wrap;connectable=0;overflow=hidden;fillColor=none;top=0;left=0;bottom=0;right=0;pointerEvents=1;" vertex="1" parent="I0BEPzhgezmqRIuU8-Me-86">
          <mxGeometry x="169" width="34" height="20" as="geometry">
            <mxRectangle width="34" height="20" as="alternateBounds" />
          </mxGeometry>
        </mxCell>
        <mxCell id="I0BEPzhgezmqRIuU8-Me-93" value="" style="shape=partialRectangle;html=1;whiteSpace=wrap;connectable=0;overflow=hidden;fillColor=none;top=0;left=0;bottom=0;right=0;pointerEvents=1;" vertex="1" parent="I0BEPzhgezmqRIuU8-Me-86">
          <mxGeometry x="203" width="33" height="20" as="geometry">
            <mxRectangle width="33" height="20" as="alternateBounds" />
          </mxGeometry>
        </mxCell>
        <mxCell id="I0BEPzhgezmqRIuU8-Me-94" value="" style="shape=partialRectangle;html=1;whiteSpace=wrap;connectable=0;overflow=hidden;fillColor=none;top=0;left=0;bottom=0;right=0;pointerEvents=1;" vertex="1" parent="I0BEPzhgezmqRIuU8-Me-86">
          <mxGeometry x="236" width="34" height="20" as="geometry">
            <mxRectangle width="34" height="20" as="alternateBounds" />
          </mxGeometry>
        </mxCell>
        <mxCell id="I0BEPzhgezmqRIuU8-Me-95" value="" style="shape=tableRow;horizontal=0;startSize=0;swimlaneHead=0;swimlaneBody=0;top=0;left=0;bottom=0;right=0;collapsible=0;dropTarget=0;fillColor=none;points=[[0,0.5],[1,0.5]];portConstraint=eastwest;" vertex="1" parent="I0BEPzhgezmqRIuU8-Me-76">
          <mxGeometry y="54" width="270" height="33" as="geometry" />
        </mxCell>
        <mxCell id="I0BEPzhgezmqRIuU8-Me-96" value="" style="shape=partialRectangle;html=1;whiteSpace=wrap;connectable=0;overflow=hidden;fillColor=none;top=0;left=0;bottom=0;right=0;pointerEvents=1;" vertex="1" parent="I0BEPzhgezmqRIuU8-Me-95">
          <mxGeometry width="34" height="33" as="geometry">
            <mxRectangle width="34" height="33" as="alternateBounds" />
          </mxGeometry>
        </mxCell>
        <mxCell id="I0BEPzhgezmqRIuU8-Me-97" value="" style="shape=partialRectangle;html=1;whiteSpace=wrap;connectable=0;overflow=hidden;fillColor=none;top=0;left=0;bottom=0;right=0;pointerEvents=1;" vertex="1" parent="I0BEPzhgezmqRIuU8-Me-95">
          <mxGeometry x="34" width="34" height="33" as="geometry">
            <mxRectangle width="34" height="33" as="alternateBounds" />
          </mxGeometry>
        </mxCell>
        <mxCell id="I0BEPzhgezmqRIuU8-Me-98" value="" style="shape=partialRectangle;html=1;whiteSpace=wrap;connectable=0;overflow=hidden;fillColor=none;top=0;left=0;bottom=0;right=0;pointerEvents=1;" vertex="1" parent="I0BEPzhgezmqRIuU8-Me-95">
          <mxGeometry x="68" width="33" height="33" as="geometry">
            <mxRectangle width="33" height="33" as="alternateBounds" />
          </mxGeometry>
        </mxCell>
        <mxCell id="I0BEPzhgezmqRIuU8-Me-99" value="" style="shape=partialRectangle;html=1;whiteSpace=wrap;connectable=0;overflow=hidden;fillColor=none;top=0;left=0;bottom=0;right=0;pointerEvents=1;" vertex="1" parent="I0BEPzhgezmqRIuU8-Me-95">
          <mxGeometry x="101" width="34" height="33" as="geometry">
            <mxRectangle width="34" height="33" as="alternateBounds" />
          </mxGeometry>
        </mxCell>
        <mxCell id="I0BEPzhgezmqRIuU8-Me-100" value="" style="shape=partialRectangle;html=1;whiteSpace=wrap;connectable=0;overflow=hidden;fillColor=none;top=0;left=0;bottom=0;right=0;pointerEvents=1;" vertex="1" parent="I0BEPzhgezmqRIuU8-Me-95">
          <mxGeometry x="135" width="34" height="33" as="geometry">
            <mxRectangle width="34" height="33" as="alternateBounds" />
          </mxGeometry>
        </mxCell>
        <mxCell id="I0BEPzhgezmqRIuU8-Me-101" value="" style="shape=partialRectangle;html=1;whiteSpace=wrap;connectable=0;overflow=hidden;fillColor=none;top=0;left=0;bottom=0;right=0;pointerEvents=1;" vertex="1" parent="I0BEPzhgezmqRIuU8-Me-95">
          <mxGeometry x="169" width="34" height="33" as="geometry">
            <mxRectangle width="34" height="33" as="alternateBounds" />
          </mxGeometry>
        </mxCell>
        <mxCell id="I0BEPzhgezmqRIuU8-Me-102" value="" style="shape=partialRectangle;html=1;whiteSpace=wrap;connectable=0;overflow=hidden;fillColor=none;top=0;left=0;bottom=0;right=0;pointerEvents=1;" vertex="1" parent="I0BEPzhgezmqRIuU8-Me-95">
          <mxGeometry x="203" width="33" height="33" as="geometry">
            <mxRectangle width="33" height="33" as="alternateBounds" />
          </mxGeometry>
        </mxCell>
        <mxCell id="I0BEPzhgezmqRIuU8-Me-103" value="" style="shape=partialRectangle;html=1;whiteSpace=wrap;connectable=0;overflow=hidden;fillColor=none;top=0;left=0;bottom=0;right=0;pointerEvents=1;" vertex="1" parent="I0BEPzhgezmqRIuU8-Me-95">
          <mxGeometry x="236" width="34" height="33" as="geometry">
            <mxRectangle width="34" height="33" as="alternateBounds" />
          </mxGeometry>
        </mxCell>
        <mxCell id="I0BEPzhgezmqRIuU8-Me-104" value="" style="shape=tableRow;horizontal=0;startSize=0;swimlaneHead=0;swimlaneBody=0;top=0;left=0;bottom=0;right=0;collapsible=0;dropTarget=0;fillColor=none;points=[[0,0.5],[1,0.5]];portConstraint=eastwest;" vertex="1" parent="I0BEPzhgezmqRIuU8-Me-76">
          <mxGeometry y="87" width="270" height="34" as="geometry" />
        </mxCell>
        <mxCell id="I0BEPzhgezmqRIuU8-Me-105" value="" style="shape=partialRectangle;html=1;whiteSpace=wrap;connectable=0;overflow=hidden;fillColor=none;top=0;left=0;bottom=0;right=0;pointerEvents=1;" vertex="1" parent="I0BEPzhgezmqRIuU8-Me-104">
          <mxGeometry width="34" height="34" as="geometry">
            <mxRectangle width="34" height="34" as="alternateBounds" />
          </mxGeometry>
        </mxCell>
        <mxCell id="I0BEPzhgezmqRIuU8-Me-106" value="" style="shape=partialRectangle;html=1;whiteSpace=wrap;connectable=0;overflow=hidden;fillColor=none;top=0;left=0;bottom=0;right=0;pointerEvents=1;" vertex="1" parent="I0BEPzhgezmqRIuU8-Me-104">
          <mxGeometry x="34" width="34" height="34" as="geometry">
            <mxRectangle width="34" height="34" as="alternateBounds" />
          </mxGeometry>
        </mxCell>
        <mxCell id="I0BEPzhgezmqRIuU8-Me-107" value="" style="shape=partialRectangle;html=1;whiteSpace=wrap;connectable=0;overflow=hidden;fillColor=none;top=0;left=0;bottom=0;right=0;pointerEvents=1;" vertex="1" parent="I0BEPzhgezmqRIuU8-Me-104">
          <mxGeometry x="68" width="33" height="34" as="geometry">
            <mxRectangle width="33" height="34" as="alternateBounds" />
          </mxGeometry>
        </mxCell>
        <mxCell id="I0BEPzhgezmqRIuU8-Me-108" value="" style="shape=partialRectangle;html=1;whiteSpace=wrap;connectable=0;overflow=hidden;fillColor=none;top=0;left=0;bottom=0;right=0;pointerEvents=1;" vertex="1" parent="I0BEPzhgezmqRIuU8-Me-104">
          <mxGeometry x="101" width="34" height="34" as="geometry">
            <mxRectangle width="34" height="34" as="alternateBounds" />
          </mxGeometry>
        </mxCell>
        <mxCell id="I0BEPzhgezmqRIuU8-Me-109" value="" style="shape=partialRectangle;html=1;whiteSpace=wrap;connectable=0;overflow=hidden;fillColor=none;top=0;left=0;bottom=0;right=0;pointerEvents=1;" vertex="1" parent="I0BEPzhgezmqRIuU8-Me-104">
          <mxGeometry x="135" width="34" height="34" as="geometry">
            <mxRectangle width="34" height="34" as="alternateBounds" />
          </mxGeometry>
        </mxCell>
        <mxCell id="I0BEPzhgezmqRIuU8-Me-110" value="" style="shape=partialRectangle;html=1;whiteSpace=wrap;connectable=0;overflow=hidden;fillColor=none;top=0;left=0;bottom=0;right=0;pointerEvents=1;" vertex="1" parent="I0BEPzhgezmqRIuU8-Me-104">
          <mxGeometry x="169" width="34" height="34" as="geometry">
            <mxRectangle width="34" height="34" as="alternateBounds" />
          </mxGeometry>
        </mxCell>
        <mxCell id="I0BEPzhgezmqRIuU8-Me-111" value="" style="shape=partialRectangle;html=1;whiteSpace=wrap;connectable=0;overflow=hidden;fillColor=none;top=0;left=0;bottom=0;right=0;pointerEvents=1;" vertex="1" parent="I0BEPzhgezmqRIuU8-Me-104">
          <mxGeometry x="203" width="33" height="34" as="geometry">
            <mxRectangle width="33" height="34" as="alternateBounds" />
          </mxGeometry>
        </mxCell>
        <mxCell id="I0BEPzhgezmqRIuU8-Me-112" value="" style="shape=partialRectangle;html=1;whiteSpace=wrap;connectable=0;overflow=hidden;fillColor=none;top=0;left=0;bottom=0;right=0;pointerEvents=1;" vertex="1" parent="I0BEPzhgezmqRIuU8-Me-104">
          <mxGeometry x="236" width="34" height="34" as="geometry">
            <mxRectangle width="34" height="34" as="alternateBounds" />
          </mxGeometry>
        </mxCell>
        <mxCell id="I0BEPzhgezmqRIuU8-Me-113" value="" style="shape=tableRow;horizontal=0;startSize=0;swimlaneHead=0;swimlaneBody=0;top=0;left=0;bottom=0;right=0;collapsible=0;dropTarget=0;fillColor=none;points=[[0,0.5],[1,0.5]];portConstraint=eastwest;" vertex="1" parent="I0BEPzhgezmqRIuU8-Me-76">
          <mxGeometry y="121" width="270" height="34" as="geometry" />
        </mxCell>
        <mxCell id="I0BEPzhgezmqRIuU8-Me-114" value="" style="shape=partialRectangle;html=1;whiteSpace=wrap;connectable=0;overflow=hidden;fillColor=none;top=0;left=0;bottom=0;right=0;pointerEvents=1;" vertex="1" parent="I0BEPzhgezmqRIuU8-Me-113">
          <mxGeometry width="34" height="34" as="geometry">
            <mxRectangle width="34" height="34" as="alternateBounds" />
          </mxGeometry>
        </mxCell>
        <mxCell id="I0BEPzhgezmqRIuU8-Me-115" value="" style="shape=partialRectangle;html=1;whiteSpace=wrap;connectable=0;overflow=hidden;fillColor=none;top=0;left=0;bottom=0;right=0;pointerEvents=1;" vertex="1" parent="I0BEPzhgezmqRIuU8-Me-113">
          <mxGeometry x="34" width="34" height="34" as="geometry">
            <mxRectangle width="34" height="34" as="alternateBounds" />
          </mxGeometry>
        </mxCell>
        <mxCell id="I0BEPzhgezmqRIuU8-Me-116" value="" style="shape=partialRectangle;html=1;whiteSpace=wrap;connectable=0;overflow=hidden;fillColor=none;top=0;left=0;bottom=0;right=0;pointerEvents=1;" vertex="1" parent="I0BEPzhgezmqRIuU8-Me-113">
          <mxGeometry x="68" width="33" height="34" as="geometry">
            <mxRectangle width="33" height="34" as="alternateBounds" />
          </mxGeometry>
        </mxCell>
        <mxCell id="I0BEPzhgezmqRIuU8-Me-117" value="" style="shape=partialRectangle;html=1;whiteSpace=wrap;connectable=0;overflow=hidden;fillColor=none;top=0;left=0;bottom=0;right=0;pointerEvents=1;" vertex="1" parent="I0BEPzhgezmqRIuU8-Me-113">
          <mxGeometry x="101" width="34" height="34" as="geometry">
            <mxRectangle width="34" height="34" as="alternateBounds" />
          </mxGeometry>
        </mxCell>
        <mxCell id="I0BEPzhgezmqRIuU8-Me-118" value="" style="shape=partialRectangle;html=1;whiteSpace=wrap;connectable=0;overflow=hidden;fillColor=none;top=0;left=0;bottom=0;right=0;pointerEvents=1;" vertex="1" parent="I0BEPzhgezmqRIuU8-Me-113">
          <mxGeometry x="135" width="34" height="34" as="geometry">
            <mxRectangle width="34" height="34" as="alternateBounds" />
          </mxGeometry>
        </mxCell>
        <mxCell id="I0BEPzhgezmqRIuU8-Me-119" value="" style="shape=partialRectangle;html=1;whiteSpace=wrap;connectable=0;overflow=hidden;fillColor=none;top=0;left=0;bottom=0;right=0;pointerEvents=1;" vertex="1" parent="I0BEPzhgezmqRIuU8-Me-113">
          <mxGeometry x="169" width="34" height="34" as="geometry">
            <mxRectangle width="34" height="34" as="alternateBounds" />
          </mxGeometry>
        </mxCell>
        <mxCell id="I0BEPzhgezmqRIuU8-Me-120" value="" style="shape=partialRectangle;html=1;whiteSpace=wrap;connectable=0;overflow=hidden;fillColor=none;top=0;left=0;bottom=0;right=0;pointerEvents=1;" vertex="1" parent="I0BEPzhgezmqRIuU8-Me-113">
          <mxGeometry x="203" width="33" height="34" as="geometry">
            <mxRectangle width="33" height="34" as="alternateBounds" />
          </mxGeometry>
        </mxCell>
        <mxCell id="I0BEPzhgezmqRIuU8-Me-121" value="" style="shape=partialRectangle;html=1;whiteSpace=wrap;connectable=0;overflow=hidden;fillColor=none;top=0;left=0;bottom=0;right=0;pointerEvents=1;" vertex="1" parent="I0BEPzhgezmqRIuU8-Me-113">
          <mxGeometry x="236" width="34" height="34" as="geometry">
            <mxRectangle width="34" height="34" as="alternateBounds" />
          </mxGeometry>
        </mxCell>
        <mxCell id="I0BEPzhgezmqRIuU8-Me-122" value="" style="shape=tableRow;horizontal=0;startSize=0;swimlaneHead=0;swimlaneBody=0;top=0;left=0;bottom=0;right=0;collapsible=0;dropTarget=0;fillColor=none;points=[[0,0.5],[1,0.5]];portConstraint=eastwest;" vertex="1" parent="I0BEPzhgezmqRIuU8-Me-76">
          <mxGeometry y="155" width="270" height="34" as="geometry" />
        </mxCell>
        <mxCell id="I0BEPzhgezmqRIuU8-Me-123" value="" style="shape=partialRectangle;html=1;whiteSpace=wrap;connectable=0;overflow=hidden;fillColor=none;top=0;left=0;bottom=0;right=0;pointerEvents=1;" vertex="1" parent="I0BEPzhgezmqRIuU8-Me-122">
          <mxGeometry width="34" height="34" as="geometry">
            <mxRectangle width="34" height="34" as="alternateBounds" />
          </mxGeometry>
        </mxCell>
        <mxCell id="I0BEPzhgezmqRIuU8-Me-124" value="" style="shape=partialRectangle;html=1;whiteSpace=wrap;connectable=0;overflow=hidden;fillColor=none;top=0;left=0;bottom=0;right=0;pointerEvents=1;" vertex="1" parent="I0BEPzhgezmqRIuU8-Me-122">
          <mxGeometry x="34" width="34" height="34" as="geometry">
            <mxRectangle width="34" height="34" as="alternateBounds" />
          </mxGeometry>
        </mxCell>
        <mxCell id="I0BEPzhgezmqRIuU8-Me-125" value="" style="shape=partialRectangle;html=1;whiteSpace=wrap;connectable=0;overflow=hidden;fillColor=none;top=0;left=0;bottom=0;right=0;pointerEvents=1;" vertex="1" parent="I0BEPzhgezmqRIuU8-Me-122">
          <mxGeometry x="68" width="33" height="34" as="geometry">
            <mxRectangle width="33" height="34" as="alternateBounds" />
          </mxGeometry>
        </mxCell>
        <mxCell id="I0BEPzhgezmqRIuU8-Me-126" value="" style="shape=partialRectangle;html=1;whiteSpace=wrap;connectable=0;overflow=hidden;fillColor=none;top=0;left=0;bottom=0;right=0;pointerEvents=1;" vertex="1" parent="I0BEPzhgezmqRIuU8-Me-122">
          <mxGeometry x="101" width="34" height="34" as="geometry">
            <mxRectangle width="34" height="34" as="alternateBounds" />
          </mxGeometry>
        </mxCell>
        <mxCell id="I0BEPzhgezmqRIuU8-Me-127" value="" style="shape=partialRectangle;html=1;whiteSpace=wrap;connectable=0;overflow=hidden;fillColor=none;top=0;left=0;bottom=0;right=0;pointerEvents=1;" vertex="1" parent="I0BEPzhgezmqRIuU8-Me-122">
          <mxGeometry x="135" width="34" height="34" as="geometry">
            <mxRectangle width="34" height="34" as="alternateBounds" />
          </mxGeometry>
        </mxCell>
        <mxCell id="I0BEPzhgezmqRIuU8-Me-128" value="" style="shape=partialRectangle;html=1;whiteSpace=wrap;connectable=0;overflow=hidden;fillColor=none;top=0;left=0;bottom=0;right=0;pointerEvents=1;" vertex="1" parent="I0BEPzhgezmqRIuU8-Me-122">
          <mxGeometry x="169" width="34" height="34" as="geometry">
            <mxRectangle width="34" height="34" as="alternateBounds" />
          </mxGeometry>
        </mxCell>
        <mxCell id="I0BEPzhgezmqRIuU8-Me-129" value="" style="shape=partialRectangle;html=1;whiteSpace=wrap;connectable=0;overflow=hidden;fillColor=none;top=0;left=0;bottom=0;right=0;pointerEvents=1;" vertex="1" parent="I0BEPzhgezmqRIuU8-Me-122">
          <mxGeometry x="203" width="33" height="34" as="geometry">
            <mxRectangle width="33" height="34" as="alternateBounds" />
          </mxGeometry>
        </mxCell>
        <mxCell id="I0BEPzhgezmqRIuU8-Me-130" value="" style="shape=partialRectangle;html=1;whiteSpace=wrap;connectable=0;overflow=hidden;fillColor=none;top=0;left=0;bottom=0;right=0;pointerEvents=1;" vertex="1" parent="I0BEPzhgezmqRIuU8-Me-122">
          <mxGeometry x="236" width="34" height="34" as="geometry">
            <mxRectangle width="34" height="34" as="alternateBounds" />
          </mxGeometry>
        </mxCell>
        <mxCell id="I0BEPzhgezmqRIuU8-Me-131" value="" style="shape=tableRow;horizontal=0;startSize=0;swimlaneHead=0;swimlaneBody=0;top=0;left=0;bottom=0;right=0;collapsible=0;dropTarget=0;fillColor=none;points=[[0,0.5],[1,0.5]];portConstraint=eastwest;" vertex="1" parent="I0BEPzhgezmqRIuU8-Me-76">
          <mxGeometry y="189" width="270" height="33" as="geometry" />
        </mxCell>
        <mxCell id="I0BEPzhgezmqRIuU8-Me-132" value="" style="shape=partialRectangle;html=1;whiteSpace=wrap;connectable=0;overflow=hidden;fillColor=none;top=0;left=0;bottom=0;right=0;pointerEvents=1;" vertex="1" parent="I0BEPzhgezmqRIuU8-Me-131">
          <mxGeometry width="34" height="33" as="geometry">
            <mxRectangle width="34" height="33" as="alternateBounds" />
          </mxGeometry>
        </mxCell>
        <mxCell id="I0BEPzhgezmqRIuU8-Me-133" value="" style="shape=partialRectangle;html=1;whiteSpace=wrap;connectable=0;overflow=hidden;fillColor=none;top=0;left=0;bottom=0;right=0;pointerEvents=1;" vertex="1" parent="I0BEPzhgezmqRIuU8-Me-131">
          <mxGeometry x="34" width="34" height="33" as="geometry">
            <mxRectangle width="34" height="33" as="alternateBounds" />
          </mxGeometry>
        </mxCell>
        <mxCell id="I0BEPzhgezmqRIuU8-Me-134" value="" style="shape=partialRectangle;html=1;whiteSpace=wrap;connectable=0;overflow=hidden;fillColor=none;top=0;left=0;bottom=0;right=0;pointerEvents=1;" vertex="1" parent="I0BEPzhgezmqRIuU8-Me-131">
          <mxGeometry x="68" width="33" height="33" as="geometry">
            <mxRectangle width="33" height="33" as="alternateBounds" />
          </mxGeometry>
        </mxCell>
        <mxCell id="I0BEPzhgezmqRIuU8-Me-135" value="" style="shape=partialRectangle;html=1;whiteSpace=wrap;connectable=0;overflow=hidden;fillColor=none;top=0;left=0;bottom=0;right=0;pointerEvents=1;" vertex="1" parent="I0BEPzhgezmqRIuU8-Me-131">
          <mxGeometry x="101" width="34" height="33" as="geometry">
            <mxRectangle width="34" height="33" as="alternateBounds" />
          </mxGeometry>
        </mxCell>
        <mxCell id="I0BEPzhgezmqRIuU8-Me-136" value="" style="shape=partialRectangle;html=1;whiteSpace=wrap;connectable=0;overflow=hidden;fillColor=none;top=0;left=0;bottom=0;right=0;pointerEvents=1;" vertex="1" parent="I0BEPzhgezmqRIuU8-Me-131">
          <mxGeometry x="135" width="34" height="33" as="geometry">
            <mxRectangle width="34" height="33" as="alternateBounds" />
          </mxGeometry>
        </mxCell>
        <mxCell id="I0BEPzhgezmqRIuU8-Me-137" value="" style="shape=partialRectangle;html=1;whiteSpace=wrap;connectable=0;overflow=hidden;fillColor=none;top=0;left=0;bottom=0;right=0;pointerEvents=1;" vertex="1" parent="I0BEPzhgezmqRIuU8-Me-131">
          <mxGeometry x="169" width="34" height="33" as="geometry">
            <mxRectangle width="34" height="33" as="alternateBounds" />
          </mxGeometry>
        </mxCell>
        <mxCell id="I0BEPzhgezmqRIuU8-Me-138" value="" style="shape=partialRectangle;html=1;whiteSpace=wrap;connectable=0;overflow=hidden;fillColor=none;top=0;left=0;bottom=0;right=0;pointerEvents=1;" vertex="1" parent="I0BEPzhgezmqRIuU8-Me-131">
          <mxGeometry x="203" width="33" height="33" as="geometry">
            <mxRectangle width="33" height="33" as="alternateBounds" />
          </mxGeometry>
        </mxCell>
        <mxCell id="I0BEPzhgezmqRIuU8-Me-139" value="" style="shape=partialRectangle;html=1;whiteSpace=wrap;connectable=0;overflow=hidden;fillColor=none;top=0;left=0;bottom=0;right=0;pointerEvents=1;" vertex="1" parent="I0BEPzhgezmqRIuU8-Me-131">
          <mxGeometry x="236" width="34" height="33" as="geometry">
            <mxRectangle width="34" height="33" as="alternateBounds" />
          </mxGeometry>
        </mxCell>
        <mxCell id="I0BEPzhgezmqRIuU8-Me-140" value="" style="shape=tableRow;horizontal=0;startSize=0;swimlaneHead=0;swimlaneBody=0;top=0;left=0;bottom=0;right=0;collapsible=0;dropTarget=0;fillColor=none;points=[[0,0.5],[1,0.5]];portConstraint=eastwest;" vertex="1" parent="I0BEPzhgezmqRIuU8-Me-76">
          <mxGeometry y="222" width="270" height="34" as="geometry" />
        </mxCell>
        <mxCell id="I0BEPzhgezmqRIuU8-Me-141" value="" style="shape=partialRectangle;html=1;whiteSpace=wrap;connectable=0;overflow=hidden;fillColor=none;top=0;left=0;bottom=0;right=0;pointerEvents=1;" vertex="1" parent="I0BEPzhgezmqRIuU8-Me-140">
          <mxGeometry width="34" height="34" as="geometry">
            <mxRectangle width="34" height="34" as="alternateBounds" />
          </mxGeometry>
        </mxCell>
        <mxCell id="I0BEPzhgezmqRIuU8-Me-142" value="" style="shape=partialRectangle;html=1;whiteSpace=wrap;connectable=0;overflow=hidden;fillColor=none;top=0;left=0;bottom=0;right=0;pointerEvents=1;" vertex="1" parent="I0BEPzhgezmqRIuU8-Me-140">
          <mxGeometry x="34" width="34" height="34" as="geometry">
            <mxRectangle width="34" height="34" as="alternateBounds" />
          </mxGeometry>
        </mxCell>
        <mxCell id="I0BEPzhgezmqRIuU8-Me-143" value="" style="shape=partialRectangle;html=1;whiteSpace=wrap;connectable=0;overflow=hidden;fillColor=none;top=0;left=0;bottom=0;right=0;pointerEvents=1;" vertex="1" parent="I0BEPzhgezmqRIuU8-Me-140">
          <mxGeometry x="68" width="33" height="34" as="geometry">
            <mxRectangle width="33" height="34" as="alternateBounds" />
          </mxGeometry>
        </mxCell>
        <mxCell id="I0BEPzhgezmqRIuU8-Me-144" value="" style="shape=partialRectangle;html=1;whiteSpace=wrap;connectable=0;overflow=hidden;fillColor=none;top=0;left=0;bottom=0;right=0;pointerEvents=1;" vertex="1" parent="I0BEPzhgezmqRIuU8-Me-140">
          <mxGeometry x="101" width="34" height="34" as="geometry">
            <mxRectangle width="34" height="34" as="alternateBounds" />
          </mxGeometry>
        </mxCell>
        <mxCell id="I0BEPzhgezmqRIuU8-Me-145" value="" style="shape=partialRectangle;html=1;whiteSpace=wrap;connectable=0;overflow=hidden;fillColor=none;top=0;left=0;bottom=0;right=0;pointerEvents=1;" vertex="1" parent="I0BEPzhgezmqRIuU8-Me-140">
          <mxGeometry x="135" width="34" height="34" as="geometry">
            <mxRectangle width="34" height="34" as="alternateBounds" />
          </mxGeometry>
        </mxCell>
        <mxCell id="I0BEPzhgezmqRIuU8-Me-146" value="" style="shape=partialRectangle;html=1;whiteSpace=wrap;connectable=0;overflow=hidden;fillColor=none;top=0;left=0;bottom=0;right=0;pointerEvents=1;" vertex="1" parent="I0BEPzhgezmqRIuU8-Me-140">
          <mxGeometry x="169" width="34" height="34" as="geometry">
            <mxRectangle width="34" height="34" as="alternateBounds" />
          </mxGeometry>
        </mxCell>
        <mxCell id="I0BEPzhgezmqRIuU8-Me-147" value="" style="shape=partialRectangle;html=1;whiteSpace=wrap;connectable=0;overflow=hidden;fillColor=none;top=0;left=0;bottom=0;right=0;pointerEvents=1;" vertex="1" parent="I0BEPzhgezmqRIuU8-Me-140">
          <mxGeometry x="203" width="33" height="34" as="geometry">
            <mxRectangle width="33" height="34" as="alternateBounds" />
          </mxGeometry>
        </mxCell>
        <mxCell id="I0BEPzhgezmqRIuU8-Me-148" value="" style="shape=partialRectangle;html=1;whiteSpace=wrap;connectable=0;overflow=hidden;fillColor=none;top=0;left=0;bottom=0;right=0;pointerEvents=1;" vertex="1" parent="I0BEPzhgezmqRIuU8-Me-140">
          <mxGeometry x="236" width="34" height="34" as="geometry">
            <mxRectangle width="34" height="34" as="alternateBounds" />
          </mxGeometry>
        </mxCell>
      </root>
    </mxGraphModel>
  </diagram>
</mxfile>
